<svg xmlns="http://www.w3.org/2000/svg" xmlns:xlink="http://www.w3.org/1999/xlink" width="100" height="100" viewBox="0 0 100 100"><g><g transform="translate(50 50) scale(0.69 0.69) rotate(0) translate(-50 -50)" style="fill:#000000"><svg fill="#000000" xmlns="http://www.w3.org/2000/svg" viewBox="0 0 24 24" x="0px" y="0px"><g fill="none" fill-rule="evenodd"><rect width="24" height="24"></rect><path fill="#000000" fill-rule="nonzero" d="M5.66961389,4.37483495 C5.31110415,4.58230458 4.85228723,4.45986238 4.6448176,4.10135264 C4.43734797,3.74284291 4.55979017,3.28402598 4.91829991,3.07655636 C6.97517739,1.8862411 9.31092009,1.25 11.7293448,1.25 C14.1611471,1.25 16.4880384,1.89327019 18.5231654,3.09855071 C18.8795652,3.30962436 18.9973753,3.76965246 18.7863016,4.12605222 C18.575228,4.48245198 18.1151999,4.60026207 17.7588001,4.38918842 C15.9540384,3.32033912 13.8909596,2.75 11.7293448,2.75 C9.57664625,2.75 7.49975634,3.31573129 5.66961389,4.37483495 Z"></path><path fill="#000000" fill-rule="nonzero" d="M3.63408674,9.72703344 C3.41287343,10.0772299 2.9496543,10.1817914 2.59945786,9.96057805 C2.24926143,9.73936473 2.14469994,9.2761456 2.36591326,8.92594917 C4.4207049,5.6730676 7.86480599,3.69218696 11.7293534,3.69218696 C15.6311355,3.69218696 19.1153699,5.68462854 21.0856892,8.93772888 C21.3002767,9.29202407 21.1870213,9.75319461 20.8327261,9.9677821 C20.4784309,10.1823696 20.0172603,10.0691141 19.8026728,9.71481894 C18.1023136,6.90743684 15.1028116,5.19218696 11.7293534,5.19218696 C8.39010437,5.19218696 5.41936299,6.90081395 3.63408674,9.72703344 Z"></path><path fill="#000000" fill-rule="nonzero" d="M10.2694998,21.2477895 C10.5580263,21.5449852 10.5509986,22.0198069 10.2538029,22.3083335 C9.95660716,22.5968601 9.48178543,22.5898323 9.19325886,22.2926366 C7.02299822,20.0571677 5.75741379,17.2423926 5.75741379,14.8814304 C5.75741379,11.3373767 8.27945042,8.57651739 11.7286207,8.57651739 C15.061832,8.57651739 17.4838061,11.0981674 17.8424033,14.625132 C17.8843016,15.0372211 17.5842027,15.4052506 17.1721137,15.4471489 C16.7600246,15.4890473 16.3919951,15.1889484 16.3500967,14.7768593 C16.0651296,11.9740794 14.2425744,10.0765174 11.7286207,10.0765174 C9.13968783,10.0765174 7.25741379,12.1370322 7.25741379,14.8814304 C7.25741379,16.8305136 8.35845111,19.279321 10.2694998,21.2477895 Z"></path><path fill="#000000" fill-rule="nonzero" d="M10.8406349,14.5286603 C10.7740873,14.1198275 11.0515643,13.7344555 11.4603972,13.6679079 C11.86923,13.6013603 12.254602,13.8788373 12.3211496,14.2876701 C12.5246503,15.5378695 12.8570776,16.4402809 13.3865052,17.167332 C13.8695199,17.8290593 14.5827886,18.3890448 15.3260144,18.6855676 C15.8086452,18.8783995 16.3244729,18.9783826 16.8548147,18.9783826 C17.2226037,18.9783826 17.5878823,18.9288531 17.9455135,18.8315566 C18.3451995,18.7228186 18.7573586,18.9586787 18.8660965,19.3583648 C18.9748344,19.7580508 18.7389743,20.1702099 18.3392883,20.2789478 C17.8542504,20.4109064 17.3566155,20.4783826 16.8548147,20.4783826 C16.1331245,20.4783826 15.4284745,20.3418 14.769823,20.0786401 C13.7620777,19.6765828 12.8226156,18.9390133 12.1744312,18.0510038 C11.491333,17.1129214 11.0791601,15.9940317 10.8406349,14.5286603 Z"></path><path fill="#000000" fill-rule="nonzero" d="M5.62872385,18.4647096 C5.82331489,18.8303695 5.68463613,19.2845427 5.31897618,19.4791337 C4.95331623,19.6737248 4.49914306,19.535046 4.30455202,19.1693861 C3.65782966,17.954117 3.3362931,16.4645773 3.3362931,14.8817 C3.3362931,9.98669085 6.95252142,6.12581425 11.7306928,6.13435337 C16.6491205,6.14313664 20.4643415,10.3273739 20.2961761,14.9092164 C20.2239603,16.8762413 18.8055418,17.8626895 17.0113342,17.8909542 C15.362228,17.9170164 13.9516868,16.7258677 13.666326,14.9989212 C13.3798849,13.2653301 12.6723867,12.5427881 11.5543751,12.618798 C10.3953686,12.6976123 9.81481616,13.388803 9.79569762,14.7118374 C9.76863813,16.5850422 11.016325,18.8575596 12.5366677,20.0913454 C13.2624903,20.6790619 13.9856635,20.9439875 15.5022165,21.2573937 C15.9078587,21.3412225 16.16874,21.7380171 16.0849112,22.1436593 C16.0010825,22.5493016 15.6042878,22.8101829 15.1986456,22.7263541 C13.4658952,22.3682693 12.5511684,22.0331703 11.5920984,21.2565871 C9.73776449,19.751762 8.26157645,17.0630561 8.29585416,14.6901676 C8.32572763,12.6228746 9.47308119,11.2568652 11.4526188,11.1222534 C13.4347755,10.9874933 14.7449368,12.3255128 15.146259,14.7543845 C15.3110676,15.7517732 16.0850892,16.4054051 16.9876692,16.3911409 C18.0694874,16.3740986 18.7589897,15.8945799 18.7971857,14.8541916 C18.9348636,11.1030121 15.7787064,7.64158466 11.7280131,7.63435098 C7.80271344,7.62733604 4.8362931,10.7944433 4.8362931,14.8817 C4.8362931,16.2328621 5.10605492,17.4825518 5.62872385,18.4647096 Z"></path></g></svg></g></g></svg>